<svg xmlns="http://www.w3.org/2000/svg" xmlns:xlink="http://www.w3.org/1999/xlink" version="1.1" id="Calque_1" x="0px" y="0px" viewBox="0 0 301.7 260.4" style="enable-background:new 0 0 301.7 260.4;" xml:space="preserve"><style type="text/css">
	.st0{fill:#000000;}
	.st1{fill:none;}
</style><g><path class="st0" d="M118.8,172.4c-0.7-0.7-0.4-2.9,0-3.3c3.1-0.2,7.3-0.9,9.9-1.5c5.5-1.1,6.4-4.4,6.8-9.5   c0.5-5.3,0.7-43.3,0.7-61.6c0-16.5,0-33.7-0.5-43.8c-0.7-5.3-0.4-9.9-5.5-11.2c-2.4-0.6-6.6-1.3-11.9-2c-0.7-0.5-0.2-2.9,0.2-3.3   h46.6c0.5,0.6,0.7,2.6,0.2,3.3c-3.3,0.5-7,0.9-9,1.3c-4.9,1.3-5.7,4.6-6.2,11.4c-0.4,9.3-0.7,31.3-0.7,50.4   c0,20.7,0.2,45.1,0.4,52.4c0.4,6.8,1.1,10.5,6.6,12.1c3.1,0.9,7,1.6,11.2,2c0.6,0.7,0.2,2.9-0.2,3.3L118.8,172.4L118.8,172.4z"/><path class="st0" d="M19.1,36.2c-0.5,0.4-0.7,2.8,0,3.3c2.8,0.5,8.6,1.1,11,2c4.9,1.8,4.9,6.2,5.1,11.9c0.4,11.2-0.2,69.3,1.3,82.3   c3.1,26.6,20.2,37.1,51.1,37.1c2.9,0,5.7-0.2,8.6-0.5c-24.8-0.5-44.8-17.2-45.9-41.8c-0.2-2.1-0.4-4.3-0.6-6.7   c-0.4-11.6-0.7-52,0-70c0.5-9.2,1.5-11,5.3-12.3c2.6-0.9,4.8-1.1,9.2-2c0.5-0.5,0.5-2.9,0-3.3C64.2,36.2,19.1,36.2,19.1,36.2z"/><path class="st0" d="M283,172.4c-7.7,0.4-23.1-0.7-29.7-3.5c-3.1-1.3-6.2-3.5-10.1-8.1c-8.4-9-23.5-35-32.4-46.9   c-1.8-2.7-3.5-3.5-5-3.5c-2.4-0.1-15.1,0-19.1,0.1v-6.2c7.4,0.5,25,0.6,29.2-1c7.5-2.6,17.6-10.4,17.6-29.2c0-4.7-0.6-8.8-1.8-12.6   c-3-13.5-17.6-25-50.2-25c6.7-0.1,26.8-0.1,29.1-0.1c24.9,0,37,15.4,37,33.2c0,19.4-13.2,29.7-25.5,35.2c-0.4,0.5-0.4,0.9-0.2,1.1   c8.6,13.9,26.9,40.5,37,50.6c10.6,10.6,14.5,11.7,24.7,12.6C283.6,169.5,283.4,172.2,283,172.4"/></g><g><path class="st0" d="M31.1,202.7h-1v1.9h10.8v-1.9v-3.2c-0.1-0.8-0.3-1.4-0.6-1.8c-0.3-0.4-0.6-0.7-1-0.8c-0.3-0.2-0.8-0.2-1.3-0.2   h-4.7v-3.9h-2.1v9.9H31.1z M37.6,198.6c0.7,0.1,1,0.5,1.1,1.2v2.9h-5.4v-4L37.6,198.6L37.6,198.6z M44.2,192.7h-2.1v10v1.9h3.3   v-1.9h-1.2V192.7z M45.1,204.5h3v-1.9h-3V204.5z M47.9,204.5h3v-1.9h-3V204.5z M50.6,204.5h35.8v-1.9H50.6V204.5z M86.1,204.5h3   v-1.9h-3V204.5z M90.5,202.7h-1.6v1.9h3.7v-1.9v-6h-2.1V202.7z M90.1,207.6H92v-2.1h-1.9V207.6z M95,196.6v6.6   c0,1.5-0.5,2.3-1.5,2.3v2c1.9,0.1,3.1-0.9,3.4-3h1v-1.9H97v-6L95,196.6L95,196.6z M99,202.7h-1.4v1.9h5v-1.9h-1.4v-10H99V202.7z    M103.5,202.7h-1.2v1.9h3.3v-1.9v-10h-2.1C103.5,192.7,103.5,202.7,103.5,202.7z M114.8,195.2h1.9v-2.1h-1.9V195.2z M117.5,195.2   h1.9v-2.1h-1.9V195.2z M112.6,204.5h2l0.2-1.3c0.6-2,1.6-3.3,2.9-4.1v5.4h3.2v-1.9h-1.1v-6.1c-1.2,0-2.2,0.2-3.1,0.6   c-0.8,0.4-1.5,0.9-2.1,1.5C113.4,200.4,112.7,202.3,112.6,204.5 M120.7,204.5h3v-1.9h-3V204.5z M123.5,204.5h3v-1.9h-3V204.5z    M126.2,204.5h32.1v-1.9h-32.1C126.2,202.6,126.2,204.5,126.2,204.5z M158,204.5h3v-1.9h-3V204.5z M163.5,202.7h-2.7v1.9h5.8v-1.9   h-0.9v-6h-2.1L163.5,202.7L163.5,202.7z M160.9,207.6h1.9v-2.1h-1.9V207.6z M163.6,207.6h1.9v-2.1h-1.9V207.6z M167.4,202.7h-1.2   v1.9h3.3v-1.9v-10h-2.1V202.7z M174.5,202.7c-1,0.1-1.6-0.4-2-1.5c-0.2-1.7,0.4-2.5,2-2.6V202.7z M175.8,196.6   c-2.8,0-4.4,0.8-4.9,2.4c-0.5,1.6-0.4,2.9,0.3,4s1.8,1.6,3.3,1.5c0.1,0.6-0.1,0.9-0.6,1H171v2h2.7c1.1,0.1,1.8-0.2,2.4-0.9   c0.4-0.5,0.5-1.2,0.5-2.1v-1.9v-6H175.8L175.8,196.6z M178.8,198.4c2.4,0.1,3.6,1.4,3.7,3.8v0.4h-5.1v1.9h7.7v-1.9h-0.7   c0-0.9-0.1-1.9-0.5-3s-1.1-1.9-2.1-2.6c-0.9-0.5-1.9-0.7-3-0.7L178.8,198.4L178.8,198.4z M186.1,202.7h-1.2v1.9h3.3v-1.9v-10h-2.1   V202.7z M191.5,192.7h-2.1v11.8h2.1V192.7z M200.6,195.2h1.9v-2.1h-1.9V195.2z M203.3,195.2h1.9v-2.1h-1.9V195.2z M198.4,204.5h2   l0.2-1.3c0.6-2,1.6-3.3,2.9-4.1v5.4h3.2v-1.9h-1.1v-6.1c-1.2,0-2.2,0.2-3.1,0.6c-0.8,0.4-1.5,0.9-2.1,1.5   C199.2,200.4,198.5,202.3,198.4,204.5 M206.5,204.5h3v-1.9h-3V204.5z M209.2,204.5H242v-1.9h-32.8V204.5z M241.8,204.5h3v-1.9h-3   V204.5z M244.5,204.5h3v-1.9h-3V204.5z M247.9,199.1c1.3,1.1,2,2.2,2.1,3.5h-2.8v1.9h3.5c0.2,0,0.3-0.2,0.6-0.6   c0.2,0.4,0.4,0.6,0.6,0.6h3.4v-1.9h-2.1c0.3-0.3,0.5-0.9,0.8-1.7s0.4-1.7,0.4-2.6c-0.2-0.9-0.8-1.5-1.6-1.8l-4.1-0.1L247.9,199.1z    M251.8,201.3c-0.3-1.2-0.8-2.2-1.4-2.8c0.8-0.1,1.4,0,1.8,0.3C252.5,199.5,252.4,200.3,251.8,201.3 M255.8,202.7h-0.7v1.9h0.7v1.9   h1.8c2.5,0.1,3.7-1.2,3.7-3.9v-5.9h-2c-2.2,0.1-3.4,1.2-3.4,3.4L255.8,202.7L255.8,202.7z M259.1,198.7v4.9c0,0.5-0.2,0.8-0.7,0.8   H258v-5c0-0.5,0.3-0.7,0.7-0.8L259.1,198.7L259.1,198.7z M264.4,192.7h-2.1v10v1.9h3.3v-1.9h-1.2L264.4,192.7L264.4,192.7z    M268,205.6h1.9v2.1H268V205.6z M266.3,198.6h3.2c0.8,0.2,1.1,0.7,1.1,1.4v2.6h-5.4v1.9h8.7v-1.9h-1.1v-3.2   c-0.3-1.7-1.4-2.7-3.1-2.8h-3.4L266.3,198.6L266.3,198.6z M274.6,202.7h-1.2v1.9h3.3v-1.9v-10h-2.1L274.6,202.7L274.6,202.7z    M280,192.7h-2.1v11.8h2.1V192.7z"/><g><path class="st0" d="M29.9,218.6v-5.8h2.2v5.7c0,1.6,0.8,2.5,2.2,2.5s2.2-0.8,2.2-2.4v-5.8h2.2v5.7c0,3.1-1.7,4.6-4.5,4.6    C31.5,223.1,29.9,221.6,29.9,218.6"/><path class="st0" d="M40.7,215.1h2.2v1.1c0.5-0.6,1.2-1.2,2.3-1.2c1.7,0,2.6,1.1,2.6,2.9v5h-2.2v-4.3c0-1-0.5-1.6-1.3-1.6    s-1.4,0.5-1.4,1.6v4.3h-2.2L40.7,215.1L40.7,215.1z"/><path class="st0" d="M49.9,215.1h2.2v7.8h-2.2V215.1z M49.8,212.3h2.3v2h-2.3V212.3z"/><polygon class="st0" points="53.5,215.1 55.8,215.1 57.5,220.4 59.3,215.1 61.6,215.1 58.5,223 56.5,223   "/><path class="st0" d="M67.5,218.4c-0.1-1-0.7-1.6-1.6-1.6s-1.5,0.7-1.7,1.6H67.5z M62,219.1L62,219.1c0-2.2,1.6-4.1,3.8-4.1    c2.6,0,3.8,2,3.8,4.2c0,0.2,0,0.4,0,0.6h-5.4c0.2,1,0.9,1.5,1.9,1.5c0.7,0,1.3-0.2,1.9-0.8l1.3,1.1c-0.7,0.9-1.8,1.4-3.2,1.4    C63.8,223.1,62,221.5,62,219.1"/><path class="st0" d="M71.3,215.1h2.2v1.6c0.5-1.1,1.2-1.8,2.5-1.7v2.3h-0.1c-1.5,0-2.4,0.9-2.4,2.7v2.9h-2.2V215.1L71.3,215.1z"/><path class="st0" d="M76.8,221.9l0.9-1.5c0.8,0.6,1.7,0.9,2.4,0.9c0.6,0,0.9-0.2,0.9-0.6l0,0c0-0.5-0.8-0.6-1.6-0.9    c-1.1-0.3-2.3-0.8-2.3-2.3l0,0c0-1.6,1.3-2.5,2.8-2.5c1,0,2.1,0.3,2.9,0.9l-0.8,1.5c-0.8-0.4-1.5-0.7-2.1-0.7    c-0.5,0-0.8,0.2-0.8,0.5l0,0c0,0.4,0.7,0.6,1.6,0.9c1.1,0.4,2.3,0.9,2.3,2.3l0,0c0,1.7-1.3,2.5-3,2.5    C79,223.1,77.8,222.7,76.8,221.9"/><path class="st0" d="M84.8,215.1H87v7.8h-2.2V215.1z M84.7,212.3H87v2h-2.3V212.3z"/><path class="st0" d="M89.4,220.7V217h-0.9v-1.9h0.9v-2h2.2v2h1.8v1.9h-1.8v3.3c0,0.5,0.2,0.8,0.7,0.8c0.4,0,0.8-0.1,1.1-0.3v1.8    c-0.5,0.3-1,0.5-1.7,0.5C90.3,223.1,89.4,222.5,89.4,220.7"/><path class="st0" d="M99,211.7l1.9,0.8l-1.9,1.7h-1.6L99,211.7z M99.9,218.4c-0.1-1-0.7-1.6-1.6-1.6s-1.5,0.7-1.7,1.6H99.9z     M94.4,219.1L94.4,219.1c0-2.2,1.6-4.1,3.8-4.1c2.6,0,3.8,2,3.8,4.2c0,0.2,0,0.4,0,0.6h-5.4c0.2,1,0.9,1.5,1.9,1.5    c0.7,0,1.3-0.2,1.9-0.8l1.3,1.1c-0.7,0.9-1.8,1.4-3.2,1.4C96.2,223.1,94.4,221.5,94.4,219.1"/><rect x="108.4" y="212.8" class="st0" width="2.2" height="10.1"/><path class="st0" d="M112.9,215.1h2.2v1.1c0.5-0.6,1.2-1.2,2.3-1.2c1.7,0,2.6,1.1,2.6,2.9v5h-2.2v-4.3c0-1-0.5-1.6-1.3-1.6    s-1.4,0.5-1.4,1.6v4.3h-2.2V215.1L112.9,215.1z"/><path class="st0" d="M122.3,220.7V217h-0.9v-1.9h0.9v-2h2.2v2h1.8v1.9h-1.8v3.3c0,0.5,0.2,0.8,0.7,0.8c0.4,0,0.8-0.1,1.1-0.3v1.8    c-0.5,0.3-1,0.5-1.7,0.5C123.2,223.1,122.3,222.5,122.3,220.7"/><path class="st0" d="M132.9,218.4c-0.1-1-0.7-1.6-1.6-1.6c-0.9,0-1.5,0.7-1.7,1.6H132.9z M127.4,219.1L127.4,219.1    c0-2.2,1.6-4.1,3.8-4.1c2.6,0,3.8,2,3.8,4.2c0,0.2,0,0.4,0,0.6h-5.4c0.2,1,0.9,1.5,1.9,1.5c0.7,0,1.3-0.2,1.9-0.8l1.3,1.1    c-0.7,0.9-1.8,1.4-3.2,1.4C129.1,223.1,127.4,221.5,127.4,219.1"/><path class="st0" d="M136.7,215.1h2.2v1.6c0.4-1.1,1.2-1.8,2.5-1.7v2.3h-0.1c-1.5,0-2.4,0.9-2.4,2.7v2.9h-2.2V215.1L136.7,215.1z"/><path class="st0" d="M142.7,215.1h2.2v1.1c0.5-0.6,1.2-1.2,2.3-1.2c1.7,0,2.6,1.1,2.6,2.9v5h-2.2v-4.3c0-1-0.5-1.6-1.3-1.6    s-1.4,0.5-1.4,1.6v4.3h-2.2L142.7,215.1L142.7,215.1z"/><path class="st0" d="M156.3,220.2v-0.4c-0.4-0.2-0.9-0.3-1.4-0.3c-0.9,0-1.5,0.4-1.5,1.1l0,0c0,0.6,0.5,0.9,1.2,0.9    C155.6,221.5,156.3,221,156.3,220.2 M151.3,220.7L151.3,220.7c0-1.7,1.3-2.5,3.1-2.5c0.8,0,1.3,0.1,1.9,0.3v-0.1    c0-0.9-0.6-1.4-1.7-1.4c-0.8,0-1.4,0.2-2.1,0.4l-0.6-1.7c0.9-0.4,1.7-0.6,3-0.6c1.2,0,2.1,0.3,2.6,0.9c0.6,0.6,0.8,1.4,0.8,2.5    v4.5h-2.1v-0.8c-0.5,0.6-1.3,1-2.3,1C152.5,223.1,151.3,222.2,151.3,220.7"/><path class="st0" d="M160.6,220.7V217h-0.9v-1.9h0.9v-2h2.2v2h1.8v1.9h-1.8v3.3c0,0.5,0.2,0.8,0.7,0.8c0.4,0,0.8-0.1,1.1-0.3v1.8    c-0.5,0.3-1,0.5-1.7,0.5C161.5,223.1,160.6,222.5,160.6,220.7"/><path class="st0" d="M166.4,215.1h2.2v7.8h-2.2V215.1z M166.3,212.3h2.3v2h-2.3V212.3z"/><path class="st0" d="M176.5,219.1L176.5,219.1c0-1.2-0.8-2.2-2-2.2c-1.3,0-2,1-2,2.1l0,0c0,1.1,0.8,2.1,2,2.1    C175.8,221.2,176.5,220.2,176.5,219.1 M170.3,219.1L170.3,219.1c0-2.3,1.8-4.1,4.2-4.1s4.2,1.8,4.2,4l0,0c0,2.2-1.8,4-4.2,4    C172.1,223.1,170.3,221.3,170.3,219.1"/><path class="st0" d="M180.3,215.1h2.2v1.1c0.5-0.6,1.2-1.2,2.3-1.2c1.7,0,2.6,1.1,2.6,2.9v5h-2.2v-4.3c0-1-0.5-1.6-1.3-1.6    s-1.4,0.5-1.4,1.6v4.3h-2.2L180.3,215.1L180.3,215.1z"/><path class="st0" d="M193.9,220.2v-0.4c-0.4-0.2-0.9-0.3-1.4-0.3c-1,0-1.5,0.4-1.5,1.1l0,0c0,0.6,0.5,0.9,1.2,0.9    C193.2,221.5,193.9,221,193.9,220.2 M188.9,220.7L188.9,220.7c0-1.7,1.3-2.5,3.1-2.5c0.8,0,1.3,0.1,1.9,0.3v-0.1    c0-0.9-0.6-1.4-1.7-1.4c-0.8,0-1.4,0.2-2.1,0.4l-0.6-1.7c0.9-0.4,1.7-0.6,3-0.6c1.2,0,2.1,0.3,2.6,0.9c0.6,0.6,0.8,1.4,0.8,2.5    v4.5h-2.1v-0.8c-0.5,0.6-1.3,1-2.4,1C190,223.1,188.9,222.2,188.9,220.7"/><rect x="198" y="212.3" class="st0" width="2.2" height="10.6"/><path class="st0" d="M207.4,218.4c-0.1-1-0.7-1.6-1.6-1.6c-0.9,0-1.5,0.7-1.7,1.6H207.4z M201.9,219.1L201.9,219.1    c0-2.2,1.6-4.1,3.8-4.1c2.6,0,3.8,2,3.8,4.2c0,0.2,0,0.4,0,0.6h-5.4c0.2,1,0.9,1.5,1.9,1.5c0.7,0,1.3-0.2,1.9-0.8l1.3,1.1    c-0.7,0.9-1.8,1.4-3.2,1.4C203.6,223.1,201.9,221.5,201.9,219.1"/><path class="st0" d="M221.1,219L221.1,219c0-1.3-0.9-2.2-1.9-2.2s-1.9,0.8-1.9,2.1l0,0c0,1.3,0.9,2.1,1.9,2.1    C220.3,221.2,221.1,220.3,221.1,219 M215.2,219L215.2,219c0-2.6,1.7-4,3.5-4c1.2,0,1.9,0.5,2.4,1.2v-3.8h2.2V223h-2.2v-1.1    c-0.5,0.7-1.3,1.3-2.4,1.3C216.9,223.1,215.2,221.6,215.2,219"/><path class="st0" d="M230.4,218.4c-0.1-1-0.7-1.6-1.6-1.6s-1.5,0.7-1.7,1.6H230.4z M224.9,219.1L224.9,219.1    c0-2.2,1.6-4.1,3.8-4.1c2.6,0,3.8,2,3.8,4.2c0,0.2,0,0.4,0,0.6h-5.4c0.2,1,0.9,1.5,1.9,1.5c0.7,0,1.3-0.2,1.9-0.8l1.3,1.1    c-0.7,0.9-1.8,1.4-3.2,1.4C226.6,223.1,224.9,221.5,224.9,219.1"/><path class="st0" d="M243.3,217.7c1.1,0,1.7-0.6,1.7-1.4l0,0c0-1-0.7-1.5-1.8-1.5H241v2.9H243.3z M238.8,212.8h4.6    c1.3,0,2.3,0.4,2.9,1c0.6,0.6,0.9,1.4,0.9,2.3l0,0c0,1.6-0.9,2.7-2.2,3.1l2.5,3.6h-2.6l-2.2-3.2H241v3.2h-2.2V212.8L238.8,212.8z"/><path class="st0" d="M253.6,220.2v-0.4c-0.4-0.2-0.9-0.3-1.4-0.3c-0.9,0-1.5,0.4-1.5,1.1l0,0c0,0.6,0.5,0.9,1.2,0.9    C252.9,221.5,253.6,221,253.6,220.2 M248.6,220.7L248.6,220.7c0-1.7,1.3-2.5,3.1-2.5c0.8,0,1.3,0.1,1.9,0.3v-0.1    c0-0.9-0.6-1.4-1.7-1.4c-0.8,0-1.4,0.2-2.1,0.4l-0.6-1.7c0.9-0.4,1.7-0.6,3-0.6c1.2,0,2.1,0.3,2.6,0.9c0.6,0.6,0.8,1.4,0.8,2.5    v4.5h-2.1v-0.8c-0.5,0.6-1.3,1-2.4,1C249.8,223.1,248.6,222.2,248.6,220.7"/><path class="st0" d="M263.6,219L263.6,219c0-1.3-0.9-2.2-1.9-2.2s-1.9,0.9-1.9,2.1l0,0c0,1.3,0.9,2.1,1.9,2.1    C262.7,221.2,263.6,220.4,263.6,219 M259.8,221.9v1h-2.2v-10.6h2.2v3.9c0.5-0.7,1.3-1.3,2.4-1.3c1.8,0,3.5,1.4,3.5,4l0,0    c0,2.6-1.7,4-3.5,4C261.1,223.1,260.3,222.5,259.8,221.9"/><path class="st0" d="M272,220.2v-0.4c-0.4-0.2-0.9-0.3-1.4-0.3c-0.9,0-1.5,0.4-1.5,1.1l0,0c0,0.6,0.5,0.9,1.2,0.9    C271.3,221.5,272,221,272,220.2 M266.9,220.7L266.9,220.7c0-1.7,1.3-2.5,3.1-2.5c0.8,0,1.3,0.1,1.9,0.3v-0.1    c0-0.9-0.6-1.4-1.7-1.4c-0.8,0-1.4,0.2-2.1,0.4l-0.6-1.7c0.9-0.4,1.7-0.6,3-0.6c1.2,0,2.1,0.3,2.6,0.9c0.6,0.6,0.8,1.4,0.8,2.5    v4.5h-2.1v-0.8c-0.5,0.6-1.3,1-2.3,1C268.1,223.1,266.9,222.2,266.9,220.7"/><path class="st0" d="M276.3,220.7V217h-0.9v-1.9h0.9v-2h2.2v2h1.8v1.9h-1.8v3.3c0,0.5,0.2,0.8,0.7,0.8c0.4,0,0.8-0.1,1.1-0.3v1.8    c-0.5,0.3-1,0.5-1.7,0.5C277.2,223.1,276.3,222.5,276.3,220.7"/></g></g><rect x="3.3" y="3.2" class="st1" width="295" height="254.3"/></svg>